<svg xmlns="http://www.w3.org/2000/svg" viewBox="0 0 69.7 92.87"><defs><style>.cls-1{fill:#d93029}.cls-2{fill:#1b75bb}</style></defs><g id="Layer_2"><g id="Layer_1-2"><path d="M45.47 56.72a6.53 6.53 0 01-7.33 10.56l-1.47 1.48a.7.7 0 00-.1.19l-.1 1.58a.25.25 0 01-.29.29l-2.41.18a.25.25 0 00-.29.29l-.15 2.41a.27.27 0 01-.3.3l-2.4.14a.27.27 0 00-.3.3l-.19 2.36a.26.26 0 01-.3.29l-1.57.1a.26.26 0 00-.2.1l-1 1a.37.37 0 01-.3.1l-2.35-.3c-.15 0-.35-.14-.35-.34l-.29-2.36a.26.26 0 01.1-.29L35 64a6.59 6.59 0 011.38-7.27 6.4 6.4 0 019.14 0zm-3.89 3.88a1.53 1.53 0 100-2.16 1.55 1.55 0 000 2.16z" class="cls-1"/><path d="M68.38 65L61 49.77c-1.65-3.41-3.27-5.87-5.48-7.49S50.58 40 47.05 40h-24.4c-3.53 0-6.27.66-8.49 2.28s-3.84 4.08-5.49 7.49L1.31 65C.15 67.35-.34 69.56.25 71.54S2.5 75 4.9 75.93l7.77 3a6 6 0 005-.19 5.4 5.4 0 00.69-.44c3.51 6.22 9.1 10.82 15.87 14.41a1.21 1.21 0 001.14 0c6.77-3.59 12.35-8.19 15.87-14.41a6.07 6.07 0 00.68.44A6 6 0 0057 79l7.77-3c2.4-.93 4.07-2.41 4.66-4.39s.11-4.26-1.05-6.61zm-8.65-.85l-8.82 3.4a6.22 6.22 0 00-2.68 7.43 7.08 7.08 0 00.48 1C45.8 81.53 41 85.66 34.85 89c-6.1-3.33-11-7.46-13.87-13a7.13 7.13 0 00.49-1 6.21 6.21 0 00-2.66-7.41L10 64.1c-1.13-.43-.54-2.8.86-2.26l7 2.72v-8.33l17-5.91 17 5.91v8.32l7-2.71c1.39-.54 2.54 1.62.87 2.26z" class="cls-2"/><path d="M12.23 10.53h1a6.25 6.25 0 001 2l-.65.7a.62.62 0 00.06.87l.76.71a.62.62 0 00.87-.06l.65-.7a4.8 4.8 0 002.11.7l.06 1a.65.65 0 00.65.6l1-.06a.65.65 0 00.6-.65l-.06-1a6.25 6.25 0 002-1l.71.65a.6.6 0 00.87-.06l.7-.76a.59.59 0 00-.05-.86l-.72-.61a5 5 0 00.71-2.12l1-.06a.65.65 0 00.59-.65l-.05-1a.66.66 0 00-.65-.6h-.93a6.25 6.25 0 00-1-2l.65-.7a.6.6 0 00-.06-.87l-.81-.76a.61.61 0 00-.87.05l-.65.71a5 5 0 00-2.12-.71l-.05-1a.65.65 0 00-.65-.6l-1.09.11a.65.65 0 00-.6.65l.06 1a6.25 6.25 0 00-2 1l-.71-.59a.59.59 0 00-.86 0l-.7.7a.61.61 0 000 .87l.71.65A5 5 0 0013 8.2l-.92.05a.66.66 0 00-.6.65l.06 1a.65.65 0 00.69.63zm6.41-4.34A2.77 2.77 0 1116 9.12a2.83 2.83 0 012.64-2.93z" class="cls-1"/><path d="M27.86 13.84A12.68 12.68 0 0025 17.16l-1.95-.66a.9.9 0 00-1.14.6l-.87 2.34a.9.9 0 00.6 1.14l1.95.65a11.87 11.87 0 00.27 4.34l-1.84.92a1 1 0 00-.44 1.25L22.71 30a1 1 0 001.29.4l1.84-.92a10.84 10.84 0 003.26 2.87l-.65 2a.89.89 0 00.55 1.1l2.39.81a.89.89 0 001.14-.59l.65-2a11.91 11.91 0 004.35-.27l.92 1.85a1 1 0 001.25.43l2.22-1.09a.94.94 0 00.44-1.24l-.92-1.85a10.84 10.84 0 002.87-3.26l2 .65a.89.89 0 001.14-.59l.77-2.3a.9.9 0 00-.6-1.14l-1.95-.65a11.93 11.93 0 00-.27-4.35l1.84-.92a1 1 0 00.44-1.25l-1.09-2.22a1 1 0 00-1.25-.47l-1.84.93A10.88 10.88 0 0040.24 13l.65-1.95a.9.9 0 00-.59-1.15L38 9.12a.9.9 0 00-1.14.6l-.65 1.95a11.86 11.86 0 00-4.34.27l-1-1.84a1 1 0 00-1.25-.44l-2.22 1.09a1 1 0 00-.46 1.25z" class="cls-2"/><path fill="none" stroke="#1b75bb" stroke-linecap="round" stroke-linejoin="round" stroke-width="1.86" d="M33.35 4a17.1 17.1 0 0120 11.05"/><path d="M37.77 6.06l-3.89-2.17L36.05 0l-2.57.73-2.17 3.89 3.89 2.17 2.57-.73z" class="cls-2"/><path fill="none" stroke="#d93029" stroke-linecap="round" stroke-linejoin="round" stroke-width="1.86" d="M11.91 21.19a11 11 0 01-6.4-10 10.56 10.56 0 01.18-2"/><path d="M9.51 16.93l1.89 4.04-4.04 1.89 2.52.91 4.03-1.89-1.88-4.04-2.52-.91z" class="cls-1"/></g></g></svg>