<svg xmlns="http://www.w3.org/2000/svg" viewBox="0 0 89.1 90.56"><defs><style>.cls-1,.cls-2{fill:#1b75bb;fill-rule:evenodd}.cls-2{fill:#d93029}</style></defs><g id="Layer_2"><g id="Layer_1-2"><path d="M80.16 0H8.94A9 9 0 000 8.94v55.7a9 9 0 008.94 8.93h14.75l-2.89-3.4H8.94a5.49 5.49 0 01-5.54-5.53V15.79h82.3v48.85a5.48 5.48 0 01-5.54 5.52h-8.22l3.59 3.41h4.63a9 9 0 008.94-8.93V8.94A9 9 0 0080.16 0zm-69.4 11.07a3.18 3.18 0 113.18-3.17 3.17 3.17 0 01-3.18 3.17zm9.25 0a3.18 3.18 0 113.18-3.17A3.17 3.17 0 0120 11.07zm9.25 0a3.18 3.18 0 113.18-3.17 3.17 3.17 0 01-3.18 3.17z" class="cls-1"/><path d="M8.31 19.9a1.45 1.45 0 00-1.44 1.47v7.4a1.46 1.46 0 102.92 0v-7.4a1.45 1.45 0 00-1.48-1.47zM23.92 19.9a1.45 1.45 0 00-1.44 1.47v7.4a1.46 1.46 0 102.92 0v-7.4a1.45 1.45 0 00-1.48-1.47zM40.63 19.9a1.46 1.46 0 00-1.44 1.47v7.4a1.46 1.46 0 102.92 0v-7.4a1.45 1.45 0 00-1.48-1.47zM16 19.91a4.9 4.9 0 00-4.7 5.17 4.9 4.9 0 004.7 5.16 4.91 4.91 0 004.71-5.16A4.91 4.91 0 0016 19.91zm0 7.41c-1 0-1.79-.82-1.79-2.24s.83-2.25 1.79-2.25 1.79.81 1.79 2.25S17 27.32 16 27.32zM8.31 47.13a1.46 1.46 0 00-1.44 1.48V56a1.46 1.46 0 102.92 0v-7.39a1.45 1.45 0 00-1.48-1.48zM16 47.14a4.9 4.9 0 00-4.7 5.17 4.9 4.9 0 004.7 5.16 5.19 5.19 0 000-10.33zm0 7.41c-1 0-1.79-.82-1.79-2.24s.83-2.25 1.79-2.25 1.79.81 1.79 2.25S17 54.55 16 54.55zM23.39 33.2A1.47 1.47 0 0022 34.68v7.4a1.46 1.46 0 102.92 0v-7.4a1.46 1.46 0 00-1.48-1.48zM18.31 33.2a1.47 1.47 0 00-1.44 1.48v7.4a1.46 1.46 0 102.92 0v-7.4a1.46 1.46 0 00-1.48-1.48zM10.76 33.22a4.9 4.9 0 00-4.7 5.17 4.89 4.89 0 004.7 5.15 4.89 4.89 0 004.7-5.15 4.9 4.9 0 00-4.7-5.17zm0 7.41c-1 0-1.8-.82-1.8-2.24s.83-2.25 1.8-2.25 1.78.81 1.78 2.25-.82 2.24-1.78 2.24zM32.05 19.91a4.9 4.9 0 00-4.7 5.17 4.9 4.9 0 004.7 5.16 4.91 4.91 0 004.71-5.16 4.91 4.91 0 00-4.71-5.17zm0 7.41c-1 0-1.79-.82-1.79-2.24s.83-2.25 1.79-2.25 1.79.81 1.79 2.25-.84 2.24-1.79 2.24zM46.57 19.9a1.45 1.45 0 00-1.44 1.47v7.4a1.46 1.46 0 102.92 0v-7.4a1.45 1.45 0 00-1.48-1.47zM68.35 19.9a1.45 1.45 0 00-1.44 1.47v7.4a1.46 1.46 0 102.92 0v-7.4a1.45 1.45 0 00-1.48-1.47zM63.28 19.9a1.46 1.46 0 00-1.44 1.47v7.4a1.46 1.46 0 102.92 0v-7.4a1.45 1.45 0 00-1.48-1.47zM54.7 19.91a4.9 4.9 0 00-4.7 5.17 4.72 4.72 0 109.4 0 4.9 4.9 0 00-4.7-5.17zm0 7.41c-1 0-1.79-.82-1.79-2.24s.83-2.25 1.79-2.25 1.79.81 1.79 2.25-.83 2.24-1.79 2.24zM77.55 19.91a4.9 4.9 0 00-4.7 5.17 4.73 4.73 0 109.41 0 4.91 4.91 0 00-4.71-5.17zm0 7.41c-1 0-1.79-.82-1.79-2.24s.83-2.25 1.79-2.25 1.79.81 1.79 2.25-.82 2.24-1.79 2.24z" class="cls-1"/><path d="M46.73 64.75a.69.69 0 01-.53.27h-.08a.6.6 0 01-.5-.42l-2.34-7-2.16 5.12a.64.64 0 01-.46.38.6.6 0 01-.56-.17l-2.62-2.57h-3.39v4.81a1.57 1.57 0 001.57 1.57h15.68a1.58 1.58 0 001.57-1.57v-4.46h-3.47z" class="cls-2"/><path d="M51.34 51.36h-1.41v-2.51a6.46 6.46 0 00-6.43-6.43 6.36 6.36 0 00-6.43 6.43v2.51h-1.41a1.57 1.57 0 00-1.57 1.56v4.76h3.64a.7.7 0 01.44.18L40.31 60l2.46-5.84a.69.69 0 01.61-.38.66.66 0 01.56.44l2.45 7.43 2.2-3.26a.64.64 0 01.52-.28h3.8v-5.19a1.57 1.57 0 00-1.57-1.56zm-4.23 0h-7.22v-2.51a3.61 3.61 0 117.22 0z" class="cls-2"/><path d="M75.85 80.57l-8.09-8.09a5.87 5.87 0 00-6.9-1l-1-1A21.5 21.5 0 0043.5 35a21.51 21.51 0 1014 37.87l1 1a5.9 5.9 0 001 6.9l8.09 8.09a5.86 5.86 0 108.29-8.28zM56.31 69.3A18.11 18.11 0 1143.5 38.37 18.13 18.13 0 0156.31 69.3z" class="cls-2"/></g></g></svg>