<svg xmlns="http://www.w3.org/2000/svg" viewBox="0 0 90.48 90.86"><defs><style>.cls-1{fill:#1b75bb}.cls-2{fill:#d93029}</style></defs><g id="Layer_2"><g id="Layer_1-2"><path d="M88.34 52.27l-6.49-2.16A39.35 39.35 0 0081 35.68l6.13-3.06a3.19 3.19 0 001.44-4.15l-3.61-7.39a3.17 3.17 0 00-4.14-1.45l-6.19 3.07a36.25 36.25 0 00-10.82-9.56L66 6.65a3 3 0 00-2-3.79L56.24.16a3 3 0 00-3.79 2l-2.16 6.47a39.35 39.35 0 00-14.43.9L32.62 3.4A3.19 3.19 0 0028.47 2l-7.39 3.57a3.17 3.17 0 00-1.45 4.14l3.07 6.14a41.62 41.62 0 00-9.38 11l-6.49-2.17a3 3 0 00-3.79 2L.16 34.42a3 3 0 002 3.79l6.49 2.16a39.35 39.35 0 00.9 14.43L3.4 57.86A3.19 3.19 0 002 62l3.57 7.4a3.17 3.17 0 004.14 1.45l6.14-3.07c.67.88 1.38 1.71 2.1 2.51.12-.29.25-.58.4-.88l5.31-10.95c.32-.68.69-1.38 1.09-2.07-.36-.67-.7-1.35-1-2a23 23 0 010-18 23.1 23.1 0 015-7.36 23.53 23.53 0 0133.12 0 23 23 0 015 25.39 21.42 21.42 0 01-1.09 2.2c.37.65.7 1.29 1 1.92l5.31 10.95c.15.31.28.61.4.9a33.33 33.33 0 004.81-6.5L83.83 66a3 3 0 003.79-2l2.7-7.93a3 3 0 00-1.98-3.8z" class="cls-1"/><path d="M55.19 37.8a10.27 10.27 0 00-18.67-3 10.07 10.07 0 003.37 13.93 10.27 10.27 0 005.35 1.5 10.2 10.2 0 009.95-12.43z" class="cls-2"/><path d="M56.15 65.86a.68.68 0 00-.45-.64l-10.24-3.56a.78.78 0 00-.22 0 .83.83 0 00-.22 0l-10.24 3.57a.66.66 0 00-.45.63v4.26a.76.76 0 000 .21l.38 1.19a.62.62 0 00.23.32 5.87 5.87 0 011.88 6.52c0 .1-.07.19-.1.28a21.68 21.68 0 008.14 7.69.73.73 0 00.7 0 21.68 21.68 0 008.14-7.69l-.1-.27a5.89 5.89 0 011.89-6.54.62.62 0 00.23-.32l.37-1.18a.64.64 0 000-.2z" class="cls-1"/><path d="M69.43 70.72l-5.31-10.95a13.81 13.81 0 00-4-5.41A9.93 9.93 0 0054 52.72H36.44a9.93 9.93 0 00-6.12 1.64 13.81 13.81 0 00-4 5.41l-5.27 10.95a6.64 6.64 0 00-.77 4.75 5.13 5.13 0 003.36 3.17l5.6 2.18a4.73 4.73 0 001.73.33 4.1 4.1 0 001.92-.47 3.74 3.74 0 00.49-.32c2.54 4.49 6.56 7.81 11.45 10.4a.89.89 0 00.82 0c4.89-2.59 8.92-5.91 11.45-10.4a3.27 3.27 0 00.5.32 4 4 0 001.91.47 4.73 4.73 0 001.73-.33l5.6-2.18a5.15 5.15 0 003.36-3.17 6.64 6.64 0 00-.77-4.75zm-6.24-.62l-5.59 2.16a2.61 2.61 0 01-.85 1.15 3.88 3.88 0 00-1.24 4.29c0 .06.05.11.07.17l.38.91-.49.86a23.69 23.69 0 01-8.87 8.41 2.68 2.68 0 01-2.72 0A23.61 23.61 0 0135 79.64l-.49-.85.38-.91.11-.18a3.86 3.86 0 00-1.22-4.28 2.6 2.6 0 01-.83-1.14l-5.67-2.18c-.73-.28-.46-1.68.34-1.68a.77.77 0 01.29 0l4.42 1.71v-4.27a2.66 2.66 0 011.79-2.52l10.25-3.57a2.83 2.83 0 01.87-.14 2.89 2.89 0 01.88.14l10.24 3.57a2.66 2.66 0 011.79 2.52v4.32l4.41-1.71a1 1 0 01.32-.06.87.87 0 01.31 1.69z" class="cls-2"/></g></g></svg>