<svg xmlns="http://www.w3.org/2000/svg" viewBox="0 0 63.68 90.63"><defs><style>.cls-1{fill:#1b75bb}</style></defs><g id="Layer_2"><g id="Layer_1-2"><path d="M47.62 70.66c-.07.07-.07.07.06.07A6.52 6.52 0 0148 72a5.61 5.61 0 01.07 1c.19-.13.33-.33.52-.46A77.28 77.28 0 0156 67.5c.59-.33 1.25-.72 2-1a3 3 0 00-3-.07c-2 1-5.53 3.1-7.37 4.28zM44.79 67.76A6.78 6.78 0 0146.3 69a.84.84 0 00.26-.2l.86-.59c1.32-.86 4.08-2 5.46-2.83a2.82 2.82 0 00-2.88-.12c-1.2.59-3.9 1.74-5.21 2.5z" class="cls-1"/><path d="M61.11 67.89c-1.25 0-3.62 1.58-4.28 2A66.6 66.6 0 0049 75.27a3.47 3.47 0 01-.53.39 9.39 9.39 0 01-3.16 1.58 100.53 100.53 0 01-15.86 2.64l-.53.06a.84.84 0 01-.92-.66.83.83 0 01.66-1l14-2.31a3.11 3.11 0 00-1-6.12l-12.58.66a12.43 12.43 0 01-3.08-.25c-8.23-1.9-12.64.66-15 1.91a2.78 2.78 0 00-2.83-1.25l-5.27.79A3.36 3.36 0 000 75.4l1.73 12.38a3.38 3.38 0 003.69 2.83l5.4-.73a2.84 2.84 0 002.37-2l23.81-.5a12.51 12.51 0 007.37-1.78l.66-.39L62.3 73.1a3.21 3.21 0 001.38-2.57 2.63 2.63 0 00-2.57-2.64zM37.05 27.7l4.89-3.85a.19.19 0 000-.3l-4.89-3.85a.28.28 0 00-.12 0 .19.19 0 00-.19.2v1.9a.19.19 0 01-.2.19h-6.68a1.11 1.11 0 01-1.11-1.11V6.39a.56.56 0 00-.55-.56h-.06c-.67.06-1.32.17-2 .29-.54.11-1.08.22-1.63.37l-2.06-4.2a2.17 2.17 0 00-1.93-1.18 2.24 2.24 0 00-.9.19l-5 2.46a2.16 2.16 0 00-1 2.82l2.07 4.13a25.56 25.56 0 00-6.62 7.35l-4.29-1.42a1.8 1.8 0 00-.64-.11A2 2 0 002.21 18L.37 23.38A2 2 0 001.72 26l4.07 1.36a25 25 0 00-.27 3.49 24.73 24.73 0 00.9 6.59l-3.84 1.89a2.16 2.16 0 00-1 2.82l2.46 5A2.14 2.14 0 006 48.35a2.24 2.24 0 00.9-.19l4-2a25.48 25.48 0 007.53 6.48L16.93 57a2 2 0 001.35 2.58l5.27 1.84a2.14 2.14 0 00.65.1 2.06 2.06 0 001.93-1.45l1.45-4.36.56.08h.05a.55.55 0 00.25-.07h.09v-.06a.57.57 0 00.22-.44V41.88a.55.55 0 00-.55-.55h-1.33a.56.56 0 00-.56.55v.19a1.76 1.76 0 01-.58 1.36 1.71 1.71 0 01-1.08.39 1.69 1.69 0 01-1-.35l-5.4-4.24a1.66 1.66 0 010-2.62l5.4-4.25a1.69 1.69 0 011-.35 1.66 1.66 0 011.08.4 1.76 1.76 0 01.58 1.35v.07a.56.56 0 00.56.55h1.33a.55.55 0 00.55-.55v-7.15a1.11 1.11 0 011.11-1.11h6.68a.2.2 0 01.2.2v1.78a.19.19 0 00.19.19.19.19 0 00.12-.04z" class="cls-1"/><path fill="#d93029" d="M60.24 35.55l-4.18-1.39a24.8 24.8 0 00.23-3.35 25.08 25.08 0 00-.9-6.63l4-2a2.16 2.16 0 001-2.82l-2.46-5a2.16 2.16 0 00-2.82-1L51 15.42a25.43 25.43 0 00-3.05-3.26 23 23 0 00-4.35-3.22L45 4.52A2 2 0 0043.69 2L38.41.11a2 2 0 00-2.58 1.35l-1.47 4.41-.93-.08c-.56 0-1.11-.09-1.67-.1a.57.57 0 00-.57.56v12.93a1.11 1.11 0 001.11 1.11h2.64a.56.56 0 00.56-.56v-.19a1.76 1.76 0 01.58-1.35 1.66 1.66 0 011.08-.4 1.64 1.64 0 011 .36l5.4 4.24a1.66 1.66 0 010 2.62l-5.4 4.24a1.64 1.64 0 01-1 .36 1.66 1.66 0 01-1.08-.4 1.76 1.76 0 01-.58-1.35v-.07a.56.56 0 00-.56-.55H32.3a1.11 1.11 0 00-1.11 1.11v6.58A1.11 1.11 0 0130.08 36h-4.81a.19.19 0 01-.2-.19v-1.74a.19.19 0 00-.31-.15l-4.89 3.84a.2.2 0 000 .31l4.89 3.84a.19.19 0 00.31-.15v-1.9a.2.2 0 01.2-.2h4.81a1.11 1.11 0 011.11 1.11v14.58a.57.57 0 00.57.56 24.88 24.88 0 005.69-.81l2.07 4.13a2.16 2.16 0 002.82 1l5-2.45a2.18 2.18 0 001-2.83l-2.07-4.12a25.33 25.33 0 006.56-7.38l4.34 1.45a2 2 0 002.57-1.35l1.84-5.4a2 2 0 00-1.34-2.6z"/></g></g></svg>